<svg xmlns="http://www.w3.org/2000/svg" viewBox="0 0 64 64" fill="none">
  <defs>
    <linearGradient id="bg" x1="10" y1="8" x2="56" y2="56" gradientUnits="userSpaceOnUse">
      <stop offset="0" stop-color="#143D60" />
      <stop offset="1" stop-color="#0F8E8A" />
    </linearGradient>
    <linearGradient id="core" x1="31" y1="16" x2="46" y2="41" gradientUnits="userSpaceOnUse">
      <stop offset="0" stop-color="#B7FFF7" />
      <stop offset="1" stop-color="#43D5C8" />
    </linearGradient>
  </defs>

  <rect x="6" y="6" width="52" height="52" rx="18" fill="url(#bg)" />
  <path
    d="M17 45.5C22.3 45.5 24.6 39.8 28.6 39.8C32.6 39.8 33.4 36.1 37.1 36.1"
    stroke="#FFFFFF"
    stroke-opacity="0.9"
    stroke-linecap="round"
    stroke-width="3"
  />
  <circle cx="16.5" cy="45.5" r="3.5" fill="#ffffff" />
  <path
    d="M40.2 16.5C33.7 16.5 28.5 21.6 28.5 27.9C28.5 36.1 37.5 43.7 39.4 45.2C39.9 45.7 40.7 45.7 41.2 45.2C43.1 43.7 52 36.1 52 27.9C52 21.6 46.8 16.5 40.2 16.5Z"
    fill="#FFFFFF"
    fill-opacity="0.12"
    stroke="#ffffff"
    stroke-width="2.4"
  />
  <circle cx="40.2" cy="27.9" r="6.9" fill="url(#core)" />
  <path
    d="M40.2 23.7V32.1M36 27.9H44.4"
    stroke="#0F3857"
    stroke-linecap="round"
    stroke-width="2.6"
  />
</svg>
